PathFileType	4	(X/Y/Z)	D:\TRACE\v60_Jaco2_6-2-23\BothDRS_Motion1_4-v60.trc
DataRate	CameraRate	NumFrames	NumMarkers	Units	OrigDataRate	OrigDataStartFrame	OrigNumFrames
100.00	100.00	      38	9	mm	100.00	5235	      6979
Frame#	Time	front left toe			Front right toe			aft left toe			aft right toe			Arm			FL body			FR body			AL Body			AR Body			
		X1	Y1	Z1	X2	Y2	Z2	X3	Y3	Z3	X4	Y4	Z4	X5	Y5	Z5	X6	Y6	Z6	X7	Y7	Z7	X8	Y8	Z8	X9	Y9	Z9	

5235	52.340	-231.04579	11.01185	-334.04639	137.31776	1.79871	-401.85428	-115.37701	22.12652	286.85013	244.43449	26.68257	216.10460	-37.46283	1088.85449	-737.19794	-148.81927	567.12433	-479.80286	8.78992	565.23370	-512.09210	37.18309	574.34662	447.69611	191.53020	566.00983	417.79504	
5236	52.350	-227.27193	14.97257	-329.52182	136.57440	1.81045	-402.16132	-116.10927	23.40137	286.29129	241.49359	30.26447	222.06654	-38.78028	1091.25659	-735.40063	-149.00264	567.81500	-478.85101	7.94105	565.45795	-510.72144	37.65554	574.66632	448.67435	192.64075	566.16962	418.99890	
5237	52.360	-224.75868	25.15267	-326.92728	136.17670	1.52843	-401.86368	-116.25355	22.14207	286.54059	237.43880	40.06387	224.70534	-40.28759	1093.59863	-733.37360	-149.83992	568.06360	-477.57056	7.06196	565.57111	-509.16071	38.27760	574.84863	449.45883	193.47679	566.45612	419.22626	
5238	52.370	-223.79547	34.46236	-325.24649	135.70001	1.46897	-401.86453	-116.36565	22.51854	286.99695	235.89693	49.67220	226.58713	-41.90397	1094.99902	-731.55237	-150.04073	567.82245	-476.26324	6.12073	565.78210	-507.71423	38.95002	574.78247	450.74820	193.77275	566.78937	420.65344	
5239	52.380	-223.78667	47.26220	-323.66031	135.37054	1.42554	-401.59857	-117.29996	22.50718	286.90616	237.01788	61.93363	226.80481	-43.14952	1095.27454	-730.15082	-150.40701	568.09985	-474.83398	7.17947	566.05585	-507.76147	39.00113	574.56921	452.11691	193.87608	566.17480	421.68881	
5240	52.390	-225.17223	59.70103	-322.51666	135.06586	1.49205	-401.44247	-117.72472	22.09315	287.13229	241.26274	74.18232	226.63962	-43.37365	1094.35315	-728.68481	-150.22913	568.28290	-473.24039	7.16344	566.34192	-506.92789	38.90770	573.84644	453.36679	194.01123	565.31952	423.31058	
5241	52.400	-227.15414	72.72445	-320.25391	134.53697	1.34968	-401.64468	-118.19475	21.89912	287.27151	244.72116	86.36823	226.50690	-43.55561	1093.07825	-727.34827	-150.17810	567.96539	-472.13071	6.08127	565.75342	-503.82675	38.64296	572.55200	454.87103	193.38750	564.14221	424.68643	
5242	52.410	-228.68570	85.06561	-317.63361	134.37848	1.14941	-401.59592	-118.68765	21.77307	287.31415	247.31575	97.53150	227.05887	-42.44638	1092.21765	-725.97400	-150.10951	567.31787	-470.54962	8.06011	565.83990	-503.45917	38.47197	571.79700	456.16208	193.62994	563.54797	426.23093	
5243	52.420	-229.82211	96.60001	-314.82861	134.20018	0.94417	-401.45236	-119.28842	21.45239	287.45630	251.41798	110.02685	228.68707	-41.88908	1091.46887	-724.29132	-150.38516	566.62836	-469.34262	7.05205	564.94031	-502.14822	38.55318	571.31671	457.72931	193.53407	563.51929	427.93231	
5244	52.430	-229.45137	107.21561	-312.07083	133.96002	0.83041	-401.23676	-119.43154	21.65899	287.76514	252.87547	120.87112	230.97456	-41.02428	1091.17627	-722.64893	-150.38306	566.05096	-467.57205	8.00220	564.40936	-500.32431	38.69592	571.27020	459.38223	192.75485	563.54193	429.24155	
5245	52.440	-228.67114	116.26231	-309.17853	133.66437	0.95918	-400.96179	-119.65670	21.72520	287.80927	253.44724	130.79294	233.67805	-40.46218	1090.75354	-721.24268	-150.47697	565.28308	-466.06140	6.44607	563.12146	-498.47351	38.83826	571.43774	460.87561	192.66931	563.58240	430.92545	
5246	52.450	-227.45706	122.85728	-306.34009	133.47214	0.98483	-400.83066	-120.10112	21.84257	287.82941	254.94890	139.08562	236.10493	-39.54417	1089.94971	-719.97778	-150.70761	564.42792	-464.39102	6.06147	562.23773	-495.94800	38.29206	571.45184	462.25882	192.15196	563.30621	432.58932	
5247	52.460	-227.93991	128.48817	-302.89691	133.50208	0.79513	-400.71521	-120.22095	21.81889	287.88312	255.42972	144.04794	239.04828	-38.76973	1088.34961	-718.55994	-150.16444	563.69952	-462.68646	7.94914	561.95697	-495.62109	38.09834	571.44086	464.14819	192.57813	563.78662	434.37073	
5248	52.470	-227.92305	130.85779	-298.83420	133.59831	0.55230	-400.55267	-120.35671	21.66952	287.90009	257.88239	146.89131	242.41962	-38.73194	1086.58594	-717.35626	-149.99294	562.96790	-461.00369	7.19859	561.20441	-493.97638	38.05027	571.47272	466.00659	192.12256	563.57904	435.93277	
5249	52.480	-227.47226	129.85251	-294.70819	133.73267	0.38472	-400.41803	-120.51675	21.69206	288.03952	260.87296	146.97528	245.83891	-38.09099	1085.21265	-715.88959	-149.83980	562.26062	-459.52533	6.88547	560.19318	-490.90268	38.12645	571.67163	467.75867	192.71767	563.89008	437.80710	
5250	52.490	-227.71762	127.49664	-289.97385	133.81885	0.41601	-400.23401	-120.56160	21.87325	288.11237	263.12714	144.38649	249.56874	-37.48101	1083.94641	-714.44531	-149.62962	561.59033	-457.48193	8.06514	559.93152	-489.79324	38.28598	572.05945	469.38556	192.85597	564.50409	439.89807	
5251	52.500	-227.42380	123.21523	-285.24124	133.91629	0.44820	-400.13983	-120.69140	21.92179	288.18216	264.56824	140.05833	253.35606	-37.33508	1082.88684	-712.56085	-149.23730	560.94800	-455.58029	8.36851	559.40411	-487.84378	37.87174	572.27313	471.45047	192.48866	565.03668	442.22870	
5252	52.510	-226.29587	116.82388	-280.64868	134.09525	0.42203	-400.05426	-120.50056	21.81502	288.25757	265.09021	134.91920	257.37866	-36.70419	1081.91797	-710.61432	-149.21886	560.15997	-453.56952	8.16449	558.82178	-485.96915	37.86029	572.47821	473.71112	192.07274	565.24261	443.86926	
5253	52.520	-224.60966	109.90359	-276.58139	134.19284	0.39708	-400.02811	-120.25777	21.51458	288.33572	267.73517	129.49794	262.12335	-36.37793	1081.13293	-708.20178	-150.75977	560.35101	-450.95322	8.26862	558.09113	-483.92719	37.93619	572.72296	475.69781	192.36670	565.63214	445.88144	
5254	52.530	-223.86919	101.90757	-272.00882	134.22780	0.40083	-399.92184	-119.70254	21.13770	288.48630	267.94910	121.20670	266.43756	-35.79929	1080.21118	-706.00757	-149.13837	558.95953	-449.45798	7.63299	557.20068	-481.00159	38.05907	572.82642	477.85568	192.41527	565.88818	447.90222	
5255	52.540	-223.63075	93.23661	-267.13013	134.29016	0.41996	-399.87460	-120.63541	21.86854	288.47882	270.35529	113.01438	270.66348	-35.67711	1079.56653	-703.40009	-149.16608	558.27551	-447.25479	8.36415	557.16711	-479.74942	38.54028	572.83136	479.54047	192.50772	566.34662	450.33823	
5256	52.550	-223.99013	84.09057	-261.98349	134.34903	0.48125	-399.77176	-120.68265	22.02106	288.46280	272.59644	103.50042	275.02246	-35.60361	1078.85498	-700.55164	-149.09192	557.73468	-444.93771	8.62937	556.83417	-477.54773	38.66124	572.81744	481.91733	193.01364	566.32916	452.36520	
5257	52.560	-224.35297	74.39751	-256.12408	134.37624	0.53625	-399.67709	-120.71142	22.03650	288.52490	274.33963	93.37265	280.09058	-35.89412	1077.90454	-697.77124	-148.97447	557.35364	-442.54822	7.65598	556.34851	-474.10834	39.00511	572.60333	484.35596	193.18620	566.24194	454.62610	
5258	52.570	-224.38921	64.31478	-249.83058	134.41835	0.53857	-399.51367	-120.76723	21.98552	288.67099	275.67053	82.44491	284.75281	-36.10044	1077.01917	-694.70605	-148.87749	556.34296	-440.04477	8.24153	555.66541	-472.05298	39.10233	572.42615	486.68005	193.43208	566.17383	457.21686	
5259	52.580	-224.64644	54.25089	-243.68576	134.38342	0.52976	-399.48206	-121.44453	22.51747	288.61139	276.95859	72.04643	290.22998	-36.09116	1076.18115	-691.57178	-148.97697	555.82886	-437.41306	8.54267	555.32526	-469.89328	39.43037	571.98254	489.17438	193.90274	565.93829	459.69095	
5260	52.590	-224.98331	44.29195	-238.02812	134.41249	0.54677	-399.33191	-121.28092	22.31071	288.90982	277.32251	62.41745	294.04099	-36.35886	1075.17847	-688.36005	-148.83327	555.16974	-434.29309	8.05168	554.96429	-467.13507	40.24213	571.86713	491.85379	194.00909	566.18469	462.55563	
5261	52.600	-225.32936	34.95537	-233.10341	134.50189	0.63976	-399.13712	-120.90666	22.20495	289.19345	277.69739	52.95668	297.82626	-36.20475	1074.17932	-684.76086	-149.60907	554.71698	-431.60477	7.74307	554.47986	-464.56519	40.78139	571.55475	494.57462	195.08444	565.81714	464.79297	
5262	52.610	-226.97084	26.46141	-228.82054	134.51544	0.71098	-399.00775	-120.90781	21.64916	289.48569	277.24921	44.25657	300.23022	-35.92193	1073.50500	-680.91357	-150.20821	554.31244	-428.71252	7.47711	554.02875	-461.61063	41.48842	571.03552	497.35397	195.67494	565.50702	467.52090	
5263	52.620	-227.96555	18.28434	-225.39641	134.52405	0.78523	-398.96512	-120.59973	21.28801	289.67413	277.06717	36.30234	302.39307	-35.99445	1072.64929	-677.21753	-150.52986	553.69513	-425.47446	7.28169	553.57037	-458.77182	41.91547	570.65454	499.88416	198.38580	565.34381	472.05508	
5264	52.630	-228.49225	11.57576	-222.50909	134.52531	0.87951	-398.86499	-119.97917	21.51089	290.27457	276.85794	30.33962	303.68979	-35.76623	1071.77246	-673.35986	-150.49667	553.07550	-422.23843	6.82917	553.18439	-455.77643	42.68721	569.59467	503.02457	196.86179	564.32739	473.21454	
5265	52.640	-229.99239	11.97550	-224.45132	134.55415	0.90933	-398.81155	-119.56334	21.27647	290.26428	278.32462	31.35631	300.80161	-35.63799	1071.03784	-669.30798	-150.41487	552.76654	-419.11169	6.52734	553.02917	-452.88422	43.46498	568.98169	506.04752	197.46906	563.82263	476.06732	
5266	52.650	-229.61211	8.25467	-223.61391	134.80711	1.18241	-398.29843	-119.03702	21.38103	290.48087	278.83057	28.92826	302.56058	-35.56112	1070.73804	-665.01514	-150.85158	552.61096	-416.07870	6.35291	553.00537	-449.85040	44.01155	569.22589	509.54147	198.56833	564.28003	480.96289	
5267	52.660	-230.48532	9.66824	-223.63347	134.95837	1.89100	-398.00916	-118.46533	22.09213	291.00864	279.09024	29.65268	301.74289	-35.60545	1070.72498	-661.04102	-150.91451	553.08429	-413.06671	6.61494	553.43274	-446.80624	44.10025	569.17407	511.57562	198.12498	564.99377	482.45605	
5268	52.670	-228.21953	8.02077	-222.53685	134.45428	6.13992	-396.79999	-118.41917	25.40037	291.30359	279.19839	28.26354	304.40240	-35.03050	1071.24988	-657.03998	-150.87479	554.19025	-410.23480	5.84870	554.30078	-442.88339	43.80384	569.04279	514.67743	197.81046	564.32037	484.89917	
5269	52.680	-228.14691	9.32181	-222.63408	132.18523	10.36824	-391.58160	-115.92344	29.65840	293.57895	280.25198	27.87994	302.89584	-34.35635	1072.15051	-653.26550	-150.65144	555.14294	-407.69394	5.99242	555.33325	-440.24326	44.27501	568.12231	517.28418	197.68651	563.93439	488.17099	
5270	52.690	-227.91072	8.83139	-223.21997	129.67717	15.09152	-385.74725	-111.87059	31.18622	298.19498	280.92838	28.05286	302.99887	-33.39497	1073.29053	-649.08551	-150.98138	555.63257	-405.32083	5.73949	555.91888	-438.79895	44.47005	567.55670	519.20129	197.81165	563.19312	489.84225	
5271	52.700	-227.53705	8.10435	-222.50790	127.93964	26.34944	-382.00375	-109.08053	43.52601	299.67120	281.08746	27.75698	303.66510	-32.11277	1074.76172	-644.80084	-151.48228	555.84631	-403.10077	6.53562	556.49414	-437.09949	44.15143	567.16443	521.50427	197.78650	562.93976	491.76331	
5272	52.710	-227.63020	8.12192	-222.69968	126.40163	36.62858	-378.14658	-107.02298	51.38547	302.80884	281.40918	27.75128	303.10544	-31.48674	1075.82642	-641.32269	-152.36234	555.80518	-400.77814	4.95634	556.32721	-434.84979	44.22014	566.54614	523.79193	197.47173	563.06952	494.75833	
